<svg xmlns="http://www.w3.org/2000/svg" xmlns:xlink="http://www.w3.org/1999/xlink" width="500" zoomAndPan="magnify" viewBox="0 0 375 374.999991" height="500" preserveAspectRatio="xMidYMid meet" version="1.0"><defs><g/></defs><g fill="#ab52c5" fill-opacity="1"><g transform="translate(156.463852, 317.798556)"><g><path d="M 104.71875 2.703125 C 81.082031 2.703125 62.679688 -2.03125 49.515625 -11.5 C 36.347656 -20.96875 29.765625 -36.796875 29.765625 -58.984375 L 29.765625 -173.984375 C 29.765625 -181.203125 28.363281 -185.757812 25.5625 -187.65625 C 22.769531 -189.550781 19.570312 -190.5 15.96875 -190.5 L 4.328125 -190.5 L 4.328125 -193.203125 L 97.6875 -193.203125 L 97.6875 -190.5 L 86.3125 -190.5 C 82.53125 -190.5 79.285156 -189.503906 76.578125 -187.515625 C 73.867188 -185.535156 72.515625 -180.664062 72.515625 -172.90625 L 72.515625 -41.671875 C 72.515625 -26.515625 76.164062 -16.003906 83.46875 -10.140625 C 90.78125 -4.285156 100.570312 -1.359375 112.84375 -1.359375 C 129.976562 -1.359375 143.28125 -6.179688 152.75 -15.828125 C 162.21875 -25.484375 166.953125 -38.789062 166.953125 -55.75 L 166.953125 -173.984375 C 166.953125 -181.203125 165.597656 -185.757812 162.890625 -187.65625 C 160.191406 -189.550781 156.945312 -190.5 153.15625 -190.5 L 136.375 -190.5 L 136.375 -193.203125 L 197.796875 -193.203125 L 197.796875 -190.5 L 183.46875 -190.5 C 179.675781 -190.5 176.425781 -189.503906 173.71875 -187.515625 C 171.007812 -185.535156 169.65625 -180.664062 169.65625 -172.90625 L 169.65625 -55.75 C 169.65625 -36.4375 164.0625 -21.863281 152.875 -12.03125 C 141.695312 -2.207031 125.644531 2.703125 104.71875 2.703125 Z M 104.71875 2.703125 "/></g></g></g><g fill="#ab52c5" fill-opacity="1"><g transform="translate(47.689456, 251.26395)"><g><path d="M 11.25 0 L 11.25 -3.21875 L 18 -3.21875 C 25.5 -3.21875 31.335938 -4.929688 35.515625 -8.359375 C 39.691406 -11.785156 41.78125 -17.566406 41.78125 -25.703125 L 41.78125 -204.71875 C 41.78125 -212.425781 39.691406 -217.941406 35.515625 -221.265625 C 31.335938 -224.585938 25.5 -226.25 18 -226.25 L 11.25 -226.25 L 11.25 -229.46875 L 109.59375 -229.46875 L 109.59375 -226.25 L 102.84375 -226.25 C 95.34375 -226.25 89.554688 -224.535156 85.484375 -221.109375 C 81.410156 -217.679688 79.375 -212.003906 79.375 -204.078125 L 79.375 -3.21875 L 135.296875 -3.21875 C 147.078125 -3.21875 156.503906 -4.929688 163.578125 -8.359375 C 170.648438 -11.785156 175.953125 -17.40625 179.484375 -25.21875 C 183.023438 -33.039062 185.222656 -43.8125 186.078125 -57.53125 L 187.046875 -69.734375 L 190.25 -69.734375 L 188 0 Z M 11.25 0 "/></g></g></g><g fill="#ab52c5" fill-opacity="1"><g transform="translate(123.543468, 354.675239)"><g><path d="M 5.628906 0 L 3.203125 0 L 0.347656 -21.214844 L 3.234375 -21.214844 L 4.472656 -10.1875 L 4.53125 -9.496094 L 4.761719 -9.496094 L 4.847656 -10.1875 L 6.175781 -21.214844 L 8.429688 -21.214844 L 9.753906 -10.1875 L 9.84375 -9.496094 L 10.074219 -9.496094 L 10.132812 -10.1875 L 11.371094 -21.214844 L 14.257812 -21.214844 L 11.402344 0 L 8.976562 0 L 7.535156 -10.042969 L 7.359375 -11.285156 L 7.246094 -11.285156 L 7.070312 -10.042969 Z M 5.628906 0 "/></g></g></g><g fill="#ab52c5" fill-opacity="1"><g transform="translate(139.2437, 354.675239)"><g><path d="M 1.15625 -21.214844 L 8.285156 -21.214844 L 8.285156 -18.011719 L 4.273438 -18.011719 L 4.273438 -12.441406 L 7.15625 -12.441406 L 7.15625 -9.035156 L 4.273438 -9.035156 L 4.273438 -3.203125 L 8.285156 -3.203125 L 8.285156 0 L 1.15625 0 Z M 1.15625 -21.214844 "/></g></g></g><g fill="#ab52c5" fill-opacity="1"><g transform="translate(149.20078, 354.675239)"><g><path d="M 1.15625 0 L 1.15625 -21.214844 L 3.898438 -21.214844 C 5.742188 -21.214844 7.1875 -20.867188 8.140625 -19.972656 C 9.09375 -19.078125 9.582031 -17.691406 9.582031 -15.585938 C 9.582031 -14.574219 9.496094 -13.824219 9.179688 -13.132812 C 8.859375 -12.441406 8.371094 -11.863281 7.648438 -11.199219 C 8.429688 -10.765625 9.003906 -9.957031 9.46875 -8.601562 C 9.699219 -7.9375 9.8125 -7.070312 9.8125 -6.003906 C 9.8125 -4.417969 9.523438 -3 8.804688 -1.90625 C 8.082031 -0.808594 6.839844 -0.0859375 4.992188 0 Z M 4.273438 -12.46875 C 4.53125 -12.46875 5.136719 -12.441406 5.65625 -12.785156 C 6.175781 -13.132812 6.582031 -13.824219 6.582031 -15.296875 C 6.582031 -16.769531 6.175781 -17.460938 5.65625 -17.808594 C 5.136719 -18.15625 4.53125 -18.125 4.273438 -18.125 Z M 4.273438 -3.089844 C 4.53125 -3.089844 5.136719 -3.03125 5.65625 -3.40625 C 6.175781 -3.78125 6.582031 -4.617188 6.582031 -6.351562 C 6.582031 -8.082031 6.175781 -8.917969 5.65625 -9.292969 C 5.136719 -9.667969 4.53125 -9.613281 4.273438 -9.613281 Z M 4.273438 -3.089844 "/></g></g></g><g fill="#ab52c5" fill-opacity="1"><g transform="translate(160.802891, 354.675239)"><g/></g></g><g fill="#ab52c5" fill-opacity="1"><g transform="translate(166.344383, 354.675239)"><g><path d="M 1.15625 0 L 1.15625 -21.214844 L 3.609375 -21.214844 C 6.496094 -21.214844 8.054688 -20.636719 8.890625 -19.019531 C 9.699219 -17.40625 9.8125 -14.75 9.8125 -10.59375 C 9.8125 -6.4375 9.699219 -3.808594 8.890625 -2.195312 C 8.054688 -0.578125 6.496094 0 3.609375 0 Z M 4.273438 -3.117188 C 5.339844 -3.117188 5.945312 -3.234375 6.261719 -4.273438 C 6.40625 -4.761719 6.523438 -5.511719 6.550781 -6.523438 C 6.582031 -7.535156 6.582031 -8.890625 6.582031 -10.621094 C 6.582031 -12.355469 6.582031 -13.710938 6.550781 -14.71875 C 6.523438 -15.703125 6.40625 -16.453125 6.261719 -16.972656 C 5.945312 -17.980469 5.339844 -18.097656 4.273438 -18.097656 Z M 4.273438 -3.117188 "/></g></g></g><g fill="#ab52c5" fill-opacity="1"><g transform="translate(178.177381, 354.675239)"><g><path d="M 1.15625 -21.214844 L 8.285156 -21.214844 L 8.285156 -18.011719 L 4.273438 -18.011719 L 4.273438 -12.441406 L 7.15625 -12.441406 L 7.15625 -9.035156 L 4.273438 -9.035156 L 4.273438 -3.203125 L 8.285156 -3.203125 L 8.285156 0 L 1.15625 0 Z M 1.15625 -21.214844 "/></g></g></g><g fill="#ab52c5" fill-opacity="1"><g transform="translate(188.134461, 354.675239)"><g><path d="M 6.8125 -21.214844 L 9.84375 -21.214844 L 6.609375 0 L 3.492188 0 L 0.261719 -21.214844 L 3.289062 -21.214844 L 4.847656 -9.554688 L 4.964844 -8.660156 L 5.136719 -8.660156 L 5.253906 -9.554688 Z M 6.8125 -21.214844 "/></g></g></g><g fill="#ab52c5" fill-opacity="1"><g transform="translate(199.332519, 354.675239)"><g><path d="M 1.15625 -21.214844 L 8.285156 -21.214844 L 8.285156 -18.011719 L 4.273438 -18.011719 L 4.273438 -12.441406 L 7.15625 -12.441406 L 7.15625 -9.035156 L 4.273438 -9.035156 L 4.273438 -3.203125 L 8.285156 -3.203125 L 8.285156 0 L 1.15625 0 Z M 1.15625 -21.214844 "/></g></g></g><g fill="#ab52c5" fill-opacity="1"><g transform="translate(209.289598, 354.675239)"><g><path d="M 1.15625 -21.214844 L 4.273438 -21.214844 L 4.273438 -2.886719 L 8.398438 -2.886719 L 8.398438 0 L 1.15625 0 Z M 1.15625 -21.214844 "/></g></g></g><g fill="#ab52c5" fill-opacity="1"><g transform="translate(218.900364, 354.675239)"><g><path d="M 9.265625 -4.359375 C 9.234375 -3.492188 9.0625 -2.714844 8.746094 -2.050781 C 8.484375 -1.472656 8.082031 -0.921875 7.503906 -0.492188 C 6.925781 -0.0273438 6.148438 0.230469 5.109375 0.230469 C 4.070312 0.230469 3.261719 -0.0273438 2.683594 -0.492188 C 2.105469 -0.921875 1.730469 -1.472656 1.472656 -2.050781 C 1.15625 -2.714844 0.980469 -3.492188 0.953125 -4.359375 L 0.953125 -16.855469 C 0.980469 -17.691406 1.15625 -18.472656 1.472656 -19.136719 C 1.730469 -19.714844 2.105469 -20.289062 2.683594 -20.722656 C 3.261719 -21.15625 4.070312 -21.445312 5.109375 -21.445312 C 6.148438 -21.445312 6.925781 -21.15625 7.503906 -20.722656 C 8.082031 -20.289062 8.484375 -19.714844 8.746094 -19.136719 C 9.0625 -18.472656 9.234375 -17.691406 9.265625 -16.855469 Z M 6.148438 -16.855469 C 6.148438 -17.433594 6.03125 -17.835938 5.742188 -18.183594 C 5.597656 -18.328125 5.367188 -18.414062 5.109375 -18.414062 C 4.558594 -18.414062 4.300781 -18.011719 4.183594 -17.636719 C 4.097656 -17.40625 4.070312 -17.144531 4.070312 -16.855469 L 4.070312 -4.359375 C 4.070312 -3.753906 4.214844 -3.347656 4.503906 -3.03125 C 4.648438 -2.886719 4.847656 -2.800781 5.109375 -2.800781 C 5.65625 -2.800781 5.917969 -3.144531 6.03125 -3.578125 C 6.117188 -3.78125 6.148438 -4.039062 6.148438 -4.359375 Z M 6.148438 -16.855469 "/></g></g></g><g fill="#ab52c5" fill-opacity="1"><g transform="translate(230.213883, 354.675239)"><g><path d="M 1.15625 -21.214844 L 4.273438 -21.214844 C 5.628906 -21.214844 6.984375 -20.867188 8.023438 -19.886719 C 9.0625 -18.90625 9.753906 -17.289062 9.753906 -14.863281 C 9.753906 -12.441406 9.0625 -10.851562 8.023438 -9.871094 C 6.984375 -8.890625 5.628906 -8.484375 4.273438 -8.484375 L 4.273438 0 L 1.15625 0 Z M 4.273438 -11.660156 C 5.222656 -11.660156 5.832031 -11.835938 6.175781 -12.324219 C 6.523438 -12.785156 6.609375 -13.566406 6.609375 -14.75 C 6.609375 -15.933594 6.523438 -16.769531 6.175781 -17.289062 C 5.832031 -17.808594 5.222656 -18.039062 4.273438 -18.039062 Z M 4.273438 -11.660156 "/></g></g></g><g fill="#ab52c5" fill-opacity="1"><g transform="translate(241.469681, 354.675239)"><g><path d="M 1.15625 -21.214844 L 8.285156 -21.214844 L 8.285156 -18.011719 L 4.273438 -18.011719 L 4.273438 -12.441406 L 7.15625 -12.441406 L 7.15625 -9.035156 L 4.273438 -9.035156 L 4.273438 -3.203125 L 8.285156 -3.203125 L 8.285156 0 L 1.15625 0 Z M 1.15625 -21.214844 "/></g></g></g><g fill="#ab52c5" fill-opacity="1"><g transform="translate(251.42676, 354.675239)"><g><path d="M 6.726562 0 L 5.109375 -8.949219 L 4.273438 -8.949219 L 4.273438 0 L 1.15625 0 L 1.15625 -21.214844 L 4.273438 -21.214844 C 7.996094 -21.214844 9.582031 -19.109375 9.582031 -15.09375 C 9.582031 -12.988281 9.035156 -11.082031 7.851562 -10.273438 L 9.84375 0 Z M 4.273438 -11.835938 C 4.703125 -11.835938 5.28125 -11.890625 5.742188 -12.296875 C 6.207031 -12.699219 6.582031 -13.480469 6.582031 -14.980469 C 6.582031 -16.480469 6.207031 -17.289062 5.742188 -17.691406 C 5.28125 -18.097656 4.703125 -18.125 4.273438 -18.125 Z M 4.273438 -11.835938 "/></g></g></g></svg>