<svg xmlns="http://www.w3.org/2000/svg" xmlns:xlink="http://www.w3.org/1999/xlink" width="400" zoomAndPan="magnify" viewBox="0 0 300 189.000001" height="252" preserveAspectRatio="xMidYMid meet" version="1.0"><defs><clipPath id="bf6200ce66"><path d="M 190 100 L 256 100 L 256 188.003906 L 190 188.003906 Z M 190 100 " clip-rule="nonzero"/></clipPath></defs><path fill="#100f0d" d="M 276.859375 -0.0117188 L 23.140625 -0.0117188 C 11.054688 -0.0117188 1.207031 9.835938 1.207031 21.917969 L 1.207031 113.96875 C 1.207031 126.074219 11.054688 135.917969 23.140625 135.917969 L 181.085938 135.917969 C 180.839844 131.050781 180.605469 126.148438 180.402344 121.222656 L 23.140625 121.222656 C 19.15625 121.222656 15.902344 117.976562 15.902344 113.96875 L 15.902344 21.917969 C 15.902344 17.9375 19.15625 14.683594 23.140625 14.683594 L 276.859375 14.683594 C 280.84375 14.683594 284.097656 17.9375 284.097656 21.917969 L 284.097656 113.96875 C 284.097656 117.976562 280.84375 121.222656 276.859375 121.222656 L 259.132812 121.222656 C 262.441406 125.65625 263.15625 130.167969 263.210938 133.09375 C 263.230469 133.828125 263.195312 134.804688 263.046875 135.917969 L 276.859375 135.917969 C 288.945312 135.917969 298.792969 126.074219 298.792969 113.96875 L 298.792969 21.917969 C 298.792969 9.835938 288.945312 -0.0117188 276.859375 -0.0117188 " fill-opacity="1" fill-rule="nonzero"/><path fill="#100f0d" d="M 93.804688 55.15625 L 88.890625 55.15625 C 88.070312 55.15625 87.351562 55.703125 87.125 56.496094 L 83.226562 70.214844 C 83.050781 70.847656 82.871094 71.5 82.6875 72.167969 C 82.496094 71.503906 82.285156 70.820312 82.066406 70.109375 L 77.832031 56.457031 C 77.59375 55.683594 76.882812 55.15625 76.074219 55.15625 L 71.898438 55.15625 C 71.097656 55.15625 70.394531 55.675781 70.144531 56.433594 L 65.6875 70.398438 C 65.484375 71.046875 65.285156 71.695312 65.085938 72.355469 C 64.921875 71.71875 64.757812 71.074219 64.585938 70.417969 L 60.976562 56.53125 C 60.765625 55.722656 60.03125 55.15625 59.199219 55.15625 L 54.117188 55.15625 C 53.535156 55.15625 52.988281 55.4375 52.640625 55.902344 C 52.292969 56.367188 52.191406 56.96875 52.355469 57.523438 L 60.601562 84.847656 C 60.832031 85.625 61.550781 86.160156 62.359375 86.160156 L 66.878906 86.160156 C 67.664062 86.160156 68.363281 85.652344 68.613281 84.90625 L 73.023438 71.910156 C 73.285156 71.109375 73.550781 70.28125 73.8125 69.425781 C 74.042969 70.214844 74.296875 71.011719 74.558594 71.839844 L 78.726562 84.878906 C 78.972656 85.640625 79.679688 86.160156 80.480469 86.160156 L 85 86.160156 C 85.792969 86.160156 86.503906 85.640625 86.742188 84.878906 L 95.550781 57.554688 C 95.734375 57.003906 95.632812 56.386719 95.289062 55.914062 C 94.941406 55.4375 94.386719 55.15625 93.804688 55.15625 " fill-opacity="1" fill-rule="nonzero"/><path fill="#100f0d" d="M 140.269531 55.15625 L 135.359375 55.15625 C 134.539062 55.15625 133.820312 55.703125 133.597656 56.488281 L 129.699219 70.214844 C 129.519531 70.84375 129.34375 71.5 129.15625 72.167969 C 128.960938 71.503906 128.753906 70.820312 128.535156 70.109375 L 124.304688 56.457031 C 124.0625 55.683594 123.351562 55.15625 122.546875 55.15625 L 118.367188 55.15625 C 117.566406 55.15625 116.863281 55.675781 116.617188 56.433594 L 112.152344 70.398438 C 111.953125 71.046875 111.753906 71.695312 111.558594 72.355469 C 111.394531 71.71875 111.230469 71.074219 111.058594 70.417969 L 107.449219 56.53125 C 107.234375 55.722656 106.503906 55.15625 105.664062 55.15625 L 100.582031 55.15625 C 100 55.15625 99.453125 55.4375 99.113281 55.902344 C 98.761719 56.367188 98.660156 56.96875 98.824219 57.523438 L 107.070312 84.847656 C 107.304688 85.625 108.015625 86.160156 108.828125 86.160156 L 113.339844 86.160156 C 114.136719 86.160156 114.832031 85.652344 115.085938 84.90625 L 119.496094 71.910156 C 119.753906 71.109375 120.015625 70.28125 120.28125 69.425781 C 120.515625 70.214844 120.761719 71.011719 121.019531 71.839844 L 125.199219 84.878906 C 125.445312 85.640625 126.148438 86.160156 126.949219 86.160156 L 131.460938 86.160156 C 132.261719 86.160156 132.964844 85.640625 133.210938 84.878906 L 142.019531 57.554688 C 142.199219 57.003906 142.101562 56.386719 141.753906 55.914062 C 141.410156 55.4375 140.859375 55.15625 140.269531 55.15625 " fill-opacity="1" fill-rule="nonzero"/><path fill="#100f0d" d="M 186.742188 55.15625 L 181.832031 55.15625 C 181.011719 55.15625 180.292969 55.703125 180.066406 56.496094 L 176.167969 70.214844 C 175.992188 70.847656 175.804688 71.5 175.628906 72.175781 C 175.429688 71.503906 175.226562 70.820312 175.007812 70.109375 L 170.765625 56.457031 C 170.535156 55.683594 169.824219 55.15625 169.015625 55.15625 L 164.839844 55.15625 C 164.039062 55.15625 163.335938 55.675781 163.085938 56.433594 L 158.621094 70.398438 C 158.425781 71.046875 158.226562 71.695312 158.027344 72.355469 C 157.863281 71.71875 157.699219 71.074219 157.527344 70.417969 L 153.910156 56.53125 C 153.707031 55.722656 152.972656 55.15625 152.132812 55.15625 L 147.054688 55.15625 C 146.472656 55.15625 145.925781 55.4375 145.582031 55.902344 C 145.234375 56.367188 145.132812 56.96875 145.296875 57.523438 L 153.542969 84.847656 C 153.773438 85.625 154.484375 86.160156 155.300781 86.160156 L 159.8125 86.160156 C 160.597656 86.160156 161.304688 85.652344 161.554688 84.90625 L 165.960938 71.910156 C 166.226562 71.109375 166.484375 70.28125 166.753906 69.425781 C 166.984375 70.214844 167.230469 71.011719 167.492188 71.839844 L 171.667969 84.878906 C 171.914062 85.640625 172.621094 86.160156 173.421875 86.160156 L 177.941406 86.160156 C 178.734375 86.160156 179.4375 85.640625 179.691406 84.878906 L 188.492188 57.554688 C 188.675781 57.003906 188.574219 56.386719 188.230469 55.914062 C 187.882812 55.4375 187.328125 55.15625 186.742188 55.15625 " fill-opacity="1" fill-rule="nonzero"/><path fill="#100f0d" d="M 197.386719 56.113281 C 194.40625 56.113281 192.164062 58.4375 192.164062 61.507812 C 192.164062 64.550781 194.386719 66.847656 197.324219 66.847656 C 200.355469 66.847656 202.554688 64.605469 202.554688 61.460938 C 202.46875 58.316406 200.339844 56.113281 197.386719 56.113281 " fill-opacity="1" fill-rule="nonzero"/><path fill="#100f0d" d="M 197.386719 76.046875 C 194.40625 76.046875 192.164062 78.363281 192.164062 81.441406 C 192.164062 84.484375 194.386719 86.773438 197.324219 86.773438 C 200.355469 86.773438 202.554688 84.53125 202.554688 81.394531 C 202.46875 78.242188 200.339844 76.046875 197.386719 76.046875 " fill-opacity="1" fill-rule="nonzero"/><path fill="#100f0d" d="M 228.042969 44.613281 C 227.699219 44.105469 227.132812 43.8125 226.523438 43.8125 L 222.6875 43.8125 C 221.929688 43.8125 221.246094 44.277344 220.972656 44.988281 L 205.214844 85.921875 C 205.003906 86.480469 205.078125 87.117188 205.421875 87.617188 C 205.761719 88.113281 206.332031 88.417969 206.933594 88.417969 L 210.714844 88.417969 C 211.472656 88.417969 212.15625 87.945312 212.429688 87.238281 L 228.238281 46.308594 C 228.457031 45.746094 228.382812 45.109375 228.042969 44.613281 " fill-opacity="1" fill-rule="nonzero"/><path fill="#100f0d" d="M 247.398438 44.613281 C 247.058594 44.105469 246.492188 43.8125 245.886719 43.8125 L 242.050781 43.8125 C 241.292969 43.8125 240.609375 44.277344 240.335938 44.988281 L 224.582031 85.921875 C 224.371094 86.480469 224.445312 87.117188 224.785156 87.617188 C 225.128906 88.113281 225.695312 88.417969 226.296875 88.417969 L 230.078125 88.417969 C 230.839844 88.417969 231.523438 87.945312 231.796875 87.238281 L 247.597656 46.308594 C 247.816406 45.746094 247.742188 45.109375 247.398438 44.613281 " fill-opacity="1" fill-rule="nonzero"/><g clip-path="url(#bf6200ce66)"><path fill="#100f0d" d="M 238.851562 173.707031 L 222.871094 148.671875 C 221.902344 147.148438 220.320312 146.101562 218.515625 145.808594 C 218.167969 145.730469 217.820312 145.710938 217.449219 145.710938 C 216.019531 145.710938 214.605469 146.191406 213.46875 147.113281 C 212.492188 147.863281 211.519531 148.6875 210.53125 149.511719 C 208.746094 151.023438 206.890625 152.5625 205.019531 153.847656 L 204.59375 145.402344 C 204.082031 135.152344 203.527344 124.566406 203.144531 114.152344 C 214.332031 119.851562 225.867188 125.820312 238.285156 132.34375 C 236.390625 133.257812 234.1875 133.976562 231.855469 134.707031 C 230.402344 135.167969 228.972656 135.625 227.578125 136.144531 C 225.738281 136.808594 224.300781 138.273438 223.679688 140.132812 C 223.070312 141.964844 223.316406 144 224.375 145.636719 L 241.335938 172.09375 Z M 254.175781 168.269531 L 239.660156 145.675781 C 241.683594 144.9375 243.699219 144.097656 245.683594 142.957031 C 252.246094 139.207031 253.144531 134.542969 253.109375 132.082031 C 253.054688 129.109375 251.671875 124.863281 245.355469 121.519531 C 245.355469 121.519531 245.355469 121.519531 245.339844 121.519531 C 232.035156 114.535156 219.765625 108.183594 207.847656 102.121094 C 201.730469 98.980469 197.578125 100.15625 195.171875 101.703125 C 192.785156 103.207031 189.988281 106.421875 190.226562 113.085938 C 190.632812 124.089844 191.207031 135.261719 191.753906 146.046875 L 192.210938 155.304688 C 192.578125 162.429688 195.738281 165.515625 198.332031 166.855469 C 200.902344 168.179688 205.203125 168.96875 211.097656 165.21875 C 212.828125 164.140625 214.441406 162.921875 215.945312 161.710938 L 230.050781 183.8125 C 231.378906 185.871094 233.417969 187.300781 235.800781 187.820312 C 236.445312 187.941406 237.089844 188.015625 237.75 188.015625 C 239.496094 188.015625 241.203125 187.519531 242.707031 186.527344 L 251.453125 180.835938 C 255.660156 178.117188 256.878906 172.480469 254.175781 168.269531 " fill-opacity="1" fill-rule="nonzero"/></g></svg>