<svg xmlns="http://www.w3.org/2000/svg" xmlns:xlink="http://www.w3.org/1999/xlink" width="400" zoomAndPan="magnify" viewBox="0 0 300 299.999988" height="400" preserveAspectRatio="xMidYMid meet" version="1.0"><path fill="#ff0080" d="M 61.078125 61.308594 C 61.078125 56.164062 56.863281 51.949219 51.714844 51.949219 L 28.316406 51.949219 C 23.167969 51.949219 18.953125 56.164062 18.953125 61.308594 L 18.953125 84.710938 C 18.953125 89.859375 23.167969 94.070312 28.316406 94.070312 L 51.714844 94.070312 C 56.863281 94.070312 61.078125 89.859375 61.078125 84.710938 Z M 61.078125 61.308594 " fill-opacity="1" fill-rule="nonzero"/><path fill="#ff0080" d="M 112.558594 61.308594 C 112.558594 56.164062 108.347656 51.949219 103.199219 51.949219 L 79.796875 51.949219 C 74.648438 51.949219 70.4375 56.164062 70.4375 61.308594 L 70.4375 84.710938 C 70.4375 89.859375 74.648438 94.070312 79.796875 94.070312 L 103.199219 94.070312 C 108.347656 94.070312 112.558594 89.859375 112.558594 84.710938 Z M 79.796875 84.710938 L 79.796875 61.308594 L 103.199219 61.308594 L 103.199219 84.710938 Z M 79.796875 84.710938 " fill-opacity="1" fill-rule="nonzero"/><path fill="#ff0080" d="M 61.078125 112.792969 C 61.078125 107.644531 56.863281 103.433594 51.714844 103.433594 L 28.316406 103.433594 C 23.167969 103.433594 18.953125 107.644531 18.953125 112.792969 L 18.953125 136.195312 C 18.953125 141.339844 23.167969 145.554688 28.316406 145.554688 L 51.714844 145.554688 C 56.863281 145.554688 61.078125 141.339844 61.078125 136.195312 Z M 28.316406 136.195312 L 28.316406 112.792969 L 51.714844 112.792969 L 51.714844 136.195312 Z M 28.316406 136.195312 " fill-opacity="1" fill-rule="nonzero"/><path fill="#ff0080" d="M 112.558594 112.792969 C 112.558594 107.644531 108.347656 103.433594 103.199219 103.433594 L 79.796875 103.433594 C 74.648438 103.433594 70.4375 107.644531 70.4375 112.792969 L 70.4375 136.195312 C 70.4375 141.339844 74.648438 145.554688 79.796875 145.554688 L 103.199219 145.554688 C 108.347656 145.554688 112.558594 141.339844 112.558594 136.195312 Z M 112.558594 112.792969 " fill-opacity="1" fill-rule="nonzero"/><path fill="#ff0080" d="M 278.003906 32.996094 C 278.9375 30.65625 278.9375 28.316406 278.003906 25.976562 L 269.34375 5.851562 C 268.410156 3.746094 266.535156 1.871094 264.429688 0.9375 C 262.089844 0 259.75 0 257.410156 0.9375 L 237.285156 9.828125 C 235.179688 10.765625 233.308594 12.636719 232.371094 14.742188 C 231.433594 17.082031 231.433594 19.421875 232.371094 21.761719 L 241.03125 41.886719 C 241.964844 43.992188 243.835938 45.867188 245.945312 46.800781 C 247.113281 47.269531 248.050781 47.503906 249.21875 47.503906 C 250.390625 47.503906 251.558594 47.269531 252.730469 46.800781 L 272.855469 38.144531 C 275.429688 36.972656 277.066406 35.101562 278.003906 32.996094 Z M 278.003906 32.996094 " fill-opacity="1" fill-rule="nonzero"/><path fill="#ff0080" d="M 260.453125 100.390625 C 264.429688 97.113281 264.898438 91.03125 261.386719 87.285156 L 246.179688 69.5 C 244.539062 67.628906 242.199219 66.457031 239.859375 66.226562 C 237.285156 65.992188 234.945312 66.925781 233.074219 68.566406 L 215.289062 83.773438 C 211.308594 87.050781 210.84375 93.136719 214.351562 96.878906 L 229.5625 114.664062 C 231.203125 116.535156 233.542969 117.707031 235.882812 117.941406 C 236.117188 117.941406 236.347656 117.941406 236.582031 117.941406 C 238.921875 117.941406 241.03125 117.238281 242.667969 115.601562 Z M 236.582031 108.582031 L 221.371094 90.796875 L 239.15625 75.585938 L 254.367188 93.371094 Z M 236.582031 108.582031 " fill-opacity="1" fill-rule="nonzero"/><path fill="#ff0080" d="M 185.335938 59.90625 L 206.863281 69.03125 C 211.542969 70.90625 217.160156 68.796875 219.03125 64.117188 L 228.160156 42.589844 C 230.265625 37.910156 227.925781 32.292969 223.246094 30.421875 L 201.480469 21.0625 C 196.800781 18.953125 191.1875 21.292969 189.3125 25.976562 C 189.3125 25.976562 180.1875 47.503906 180.1875 47.503906 C 179.484375 49.140625 179.484375 50.78125 179.71875 52.417969 C 180.1875 55.695312 182.292969 58.503906 185.335938 59.90625 Z M 185.335938 59.90625 " fill-opacity="1" fill-rule="nonzero"/><path fill="#ff0080" d="M 230.734375 139.46875 C 228.859375 137.597656 226.519531 136.660156 224.179688 136.660156 C 221.839844 136.660156 219.265625 137.597656 217.628906 139.46875 L 201.015625 156.085938 C 199.140625 157.957031 198.207031 160.296875 198.207031 162.636719 C 198.207031 165.210938 199.140625 167.550781 201.015625 169.1875 L 217.628906 185.804688 C 219.5 187.675781 221.839844 188.613281 224.179688 188.613281 C 226.519531 188.613281 229.09375 187.675781 230.734375 185.804688 L 247.347656 169.1875 C 249.21875 167.316406 250.15625 164.976562 250.15625 162.636719 C 250.15625 160.0625 249.21875 157.722656 247.347656 156.085938 Z M 230.734375 139.46875 " fill-opacity="1" fill-rule="nonzero"/><path fill="#ff0080" d="M 280.578125 110.921875 C 277.066406 107.410156 270.984375 107.410156 267.472656 110.921875 L 251.09375 127.300781 C 247.582031 130.8125 247.582031 136.894531 251.09375 140.40625 L 267.472656 156.785156 C 269.34375 158.660156 271.449219 159.59375 274.023438 159.59375 C 276.597656 159.59375 278.9375 158.660156 280.578125 156.785156 L 296.957031 140.40625 C 298.828125 138.535156 299.765625 136.425781 299.765625 133.851562 C 299.765625 131.277344 298.828125 128.9375 296.957031 127.300781 Z M 280.578125 110.921875 " fill-opacity="1" fill-rule="nonzero"/><path fill="#ff0080" d="M 231.203125 203.820312 C 230.265625 206.164062 230.265625 208.738281 231.203125 211.078125 L 240.5625 232.605469 C 241.496094 234.945312 243.371094 236.582031 245.710938 237.519531 C 246.878906 237.988281 248.050781 238.222656 249.21875 238.222656 C 250.390625 238.222656 251.792969 237.988281 252.964844 237.519531 L 274.492188 228.160156 C 276.832031 227.222656 278.472656 225.351562 279.40625 223.011719 C 280.34375 220.671875 280.34375 218.097656 279.40625 215.757812 L 270.046875 194.226562 C 269.109375 191.886719 267.238281 190.25 264.898438 189.3125 C 262.558594 188.378906 259.984375 188.378906 257.644531 189.3125 L 236.117188 198.675781 C 234.007812 199.609375 232.136719 201.480469 231.203125 203.820312 Z M 261.386719 197.972656 L 270.75 219.5 L 249.21875 228.859375 L 239.859375 207.332031 Z M 261.386719 197.972656 " fill-opacity="1" fill-rule="nonzero"/><path fill="#ff0080" d="M 61.078125 164.273438 C 61.078125 159.125 56.863281 154.914062 51.714844 154.914062 L 28.316406 154.914062 C 23.167969 154.914062 18.953125 159.125 18.953125 164.273438 L 18.953125 187.675781 C 18.953125 192.824219 23.167969 197.035156 28.316406 197.035156 L 51.714844 197.035156 C 56.863281 197.035156 61.078125 192.824219 61.078125 187.675781 Z M 61.078125 164.273438 " fill-opacity="1" fill-rule="nonzero"/><path fill="#ff0080" d="M 112.558594 164.273438 C 112.558594 159.125 108.347656 154.914062 103.199219 154.914062 L 79.796875 154.914062 C 74.648438 154.914062 70.4375 159.125 70.4375 164.273438 L 70.4375 187.675781 C 70.4375 192.824219 74.648438 197.035156 79.796875 197.035156 L 103.199219 197.035156 C 108.347656 197.035156 112.558594 192.824219 112.558594 187.675781 Z M 79.796875 187.675781 L 79.796875 164.273438 L 103.199219 164.273438 L 103.199219 187.675781 Z M 79.796875 187.675781 " fill-opacity="1" fill-rule="nonzero"/><path fill="#ff0080" d="M 51.714844 206.394531 L 28.316406 206.394531 C 23.167969 206.394531 18.953125 210.609375 18.953125 215.757812 L 18.953125 239.15625 C 18.953125 244.304688 23.167969 248.519531 28.316406 248.519531 L 51.714844 248.519531 C 56.863281 248.519531 61.078125 244.304688 61.078125 239.15625 L 61.078125 215.757812 C 61.078125 210.609375 56.863281 206.394531 51.714844 206.394531 Z M 28.316406 239.15625 L 28.316406 215.757812 L 51.714844 215.757812 L 51.714844 239.15625 Z M 28.316406 239.15625 " fill-opacity="1" fill-rule="nonzero"/><path fill="#ff0080" d="M 103.199219 206.394531 L 79.796875 206.394531 C 74.648438 206.394531 70.4375 210.609375 70.4375 215.757812 L 70.4375 239.15625 C 70.4375 244.304688 74.648438 248.519531 79.796875 248.519531 L 103.199219 248.519531 C 108.347656 248.519531 112.558594 244.304688 112.558594 239.15625 L 112.558594 215.757812 C 112.558594 210.609375 108.347656 206.394531 103.199219 206.394531 Z M 103.199219 206.394531 " fill-opacity="1" fill-rule="nonzero"/><path fill="#ff0080" d="M 121.917969 239.15625 C 121.917969 244.304688 126.132812 248.519531 131.277344 248.519531 L 154.679688 248.519531 C 159.828125 248.519531 163.804688 244.539062 164.039062 239.625 L 157.957031 237.050781 C 156.785156 236.582031 155.851562 235.882812 154.914062 235.414062 L 154.914062 239.390625 L 131.277344 239.390625 L 131.277344 215.757812 L 146.722656 215.757812 C 146.957031 214.585938 147.191406 213.417969 147.660156 212.480469 L 150.234375 206.394531 L 131.277344 206.394531 C 126.132812 206.394531 121.917969 210.609375 121.917969 215.757812 Z M 121.917969 239.15625 " fill-opacity="1" fill-rule="nonzero"/><path fill="#ff0080" d="M 121.917969 187.675781 C 121.917969 192.824219 126.132812 197.035156 131.277344 197.035156 L 154.210938 197.035156 L 156.785156 190.953125 C 158.191406 187.441406 160.765625 184.398438 163.804688 182.527344 L 163.804688 164.273438 C 163.804688 159.125 159.59375 154.914062 154.445312 154.914062 L 131.277344 154.914062 C 126.132812 154.914062 121.917969 159.125 121.917969 164.273438 Z M 121.917969 187.675781 " fill-opacity="1" fill-rule="nonzero"/><path fill="#ff0080" d="M 157.488281 97.816406 L 148.363281 119.34375 C 146.253906 124.023438 148.597656 129.640625 153.277344 131.511719 C 153.277344 131.511719 174.804688 140.640625 174.804688 140.640625 C 179.484375 142.511719 185.101562 140.40625 186.972656 135.726562 L 196.101562 114.195312 C 198.207031 109.515625 195.867188 103.898438 191.1875 102.027344 C 191.1875 102.027344 169.65625 92.902344 169.65625 92.902344 C 165.210938 90.796875 159.359375 93.371094 157.488281 97.816406 Z M 178.550781 132.214844 L 157.019531 123.089844 L 166.148438 101.558594 L 187.675781 110.6875 Z M 178.550781 132.214844 " fill-opacity="1" fill-rule="nonzero"/><path fill="#ff0080" d="M 195.398438 232.371094 L 204.523438 210.84375 C 206.628906 206.164062 204.289062 200.546875 199.609375 198.675781 L 178.082031 189.546875 C 175.742188 188.613281 173.167969 188.613281 170.828125 189.546875 C 168.488281 190.484375 166.613281 192.355469 165.679688 194.695312 C 165.679688 194.695312 156.085938 217.628906 156.085938 218.566406 C 155.617188 222.308594 157.253906 226.054688 160.296875 227.925781 C 160.765625 228.160156 183.230469 237.753906 183.230469 237.753906 C 187.675781 239.390625 193.292969 237.050781 195.398438 232.371094 Z M 195.398438 232.371094 " fill-opacity="1" fill-rule="nonzero"/><path fill="#ff0080" d="M 28.316406 300 L 154.679688 300 C 170.125 300 182.761719 287.363281 182.761719 271.917969 L 182.761719 247.113281 C 181.589844 246.878906 180.421875 246.410156 179.484375 246.179688 L 173.402344 243.605469 L 173.402344 253.433594 C 173.402344 263.730469 164.976562 272.152344 154.679688 272.152344 L 28.316406 272.152344 C 18.019531 272.152344 9.59375 263.730469 9.59375 253.433594 L 9.59375 28.550781 C 9.59375 18.253906 18.019531 9.828125 28.316406 9.828125 L 56.628906 9.828125 L 61.308594 15.445312 C 68.566406 23.636719 78.859375 28.550781 89.15625 28.550781 C 99.453125 28.550781 109.75 23.636719 117.003906 15.445312 L 121.683594 9.828125 L 154.679688 9.828125 C 164.976562 9.828125 173.402344 18.253906 173.402344 28.550781 L 173.402344 39.78125 L 180.65625 22.464844 C 180.890625 21.761719 181.125 21.292969 181.589844 20.828125 C 178.082031 8.890625 167.316406 0.46875 154.679688 0.46875 L 28.316406 0.46875 C 12.871094 0.46875 0.234375 13.105469 0.234375 28.550781 L 0.234375 271.917969 C 0.234375 287.363281 12.871094 300 28.316406 300 Z M 28.316406 281.277344 L 154.679688 281.277344 C 161.699219 281.277344 168.253906 278.707031 173.167969 274.257812 C 171.996094 283.621094 164.039062 290.640625 154.679688 290.640625 L 28.316406 290.640625 C 18.722656 290.640625 11 283.386719 9.828125 274.257812 C 14.742188 278.707031 21.292969 281.277344 28.316406 281.277344 Z M 109.28125 9.828125 C 103.898438 15.914062 96.644531 19.1875 89.15625 19.1875 C 81.667969 19.1875 74.648438 15.914062 69.03125 9.828125 Z M 109.28125 9.828125 " fill-opacity="1" fill-rule="nonzero"/><path fill="#ff0080" d="M 121.917969 136.195312 C 121.917969 141.339844 126.132812 145.554688 131.277344 145.554688 L 154.679688 145.554688 C 156.316406 145.554688 157.957031 145.085938 159.359375 144.382812 L 149.765625 140.40625 C 147.425781 139.46875 145.320312 138.066406 143.683594 136.195312 L 131.277344 136.195312 L 131.277344 112.792969 L 141.109375 112.792969 L 145.085938 103.433594 L 131.277344 103.433594 C 126.132812 103.433594 121.917969 107.644531 121.917969 112.792969 Z M 121.917969 136.195312 " fill-opacity="1" fill-rule="nonzero"/><path fill="#ff0080" d="M 154.679688 51.949219 L 131.277344 51.949219 C 126.132812 51.949219 121.917969 56.164062 121.917969 61.308594 L 121.917969 84.710938 C 121.917969 89.859375 126.132812 94.070312 131.277344 94.070312 L 148.828125 94.070312 C 151.402344 87.753906 157.253906 83.542969 164.039062 82.839844 L 164.039062 61.308594 C 164.039062 56.164062 159.828125 51.949219 154.679688 51.949219 Z M 154.679688 51.949219 " fill-opacity="1" fill-rule="nonzero"/><path fill="#ff0080" d="M 173.402344 61.777344 L 173.402344 84.242188 L 182.761719 88.222656 L 182.761719 69.03125 L 181.589844 68.332031 C 178.316406 66.925781 175.507812 64.585938 173.402344 61.777344 Z M 173.402344 61.777344 " fill-opacity="1" fill-rule="nonzero"/><path fill="#ff0080" d="M 173.402344 179.484375 C 173.636719 179.484375 173.867188 179.484375 174.101562 179.484375 C 176.675781 179.484375 179.015625 179.953125 181.355469 180.890625 L 182.761719 181.355469 L 182.761719 150.234375 C 181.355469 150.46875 179.953125 150.703125 178.550781 150.703125 C 176.675781 150.703125 175.039062 150.46875 173.402344 150 Z M 173.402344 179.484375 " fill-opacity="1" fill-rule="nonzero"/></svg>