<svg xmlns="http://www.w3.org/2000/svg" xmlns:xlink="http://www.w3.org/1999/xlink" width="200" zoomAndPan="magnify" viewBox="0 0 150 225" height="300" preserveAspectRatio="xMidYMid meet" version="1.0"><defs><clipPath id="81bb1923e5"><path d="M 0.289062 31 L 139 31 L 139 224.699219 L 0.289062 224.699219 Z M 0.289062 31 " clip-rule="nonzero"/></clipPath><clipPath id="533ed25e43"><path d="M 130.578125 45.101562 L 149.664062 45.101562 L 149.664062 58 L 130.578125 58 Z M 130.578125 45.101562 " clip-rule="nonzero"/></clipPath></defs><path fill="#ffbc36" d="M 43.097656 176.957031 C 43.097656 176.957031 40.21875 161.472656 36.675781 156.226562 C 23.582031 136.828125 1.089844 109.304688 26.695312 73.933594 C 46.445312 46.648438 99.375 55.652344 117.597656 84.972656 C 129.402344 103.980469 127.523438 127.53125 111.179688 144.148438 C 102.859375 152.644531 83.089844 167.8125 81.601562 181.574219 L 43.097656 176.957031 " fill-opacity="1" fill-rule="evenodd"/><g clip-path="url(#81bb1923e5)"><path fill="#000000" d="M 30.257812 174.546875 C 29.746094 174.625 29.277344 174.859375 28.886719 175.214844 C 28.335938 175.722656 28.023438 176.445312 28.023438 177.191406 C 28.0625 180.421875 27.164062 181.96875 26.871094 184.628906 C 26.300781 189.855469 28.378906 194.828125 32.097656 198.273438 C 31.921875 198.976562 31.683594 199.625 31.605469 200.425781 C 31.332031 202.890625 32.195312 205.320312 33.976562 207.394531 C 34.40625 207.863281 34.875 208.335938 35.425781 208.785156 C 35.304688 209.332031 35.226562 209.898438 35.148438 210.507812 C 34.542969 216.203125 39.320312 221.644531 46.113281 222.390625 C 52.296875 223.054688 60.304688 223.933594 66.488281 224.621094 C 73.203125 225.34375 78.488281 221.195312 79.703125 215.675781 C 79.859375 214.949219 79.917969 214.226562 79.917969 213.460938 C 82.734375 211.859375 84.65625 209.410156 85.339844 206.671875 C 85.515625 205.925781 85.535156 205.222656 85.476562 204.476562 C 85.457031 204.300781 85.4375 204.105469 85.417969 203.910156 C 89.449219 201.347656 92.347656 197.136719 93.382812 192.164062 C 93.621094 190.992188 93.640625 189.914062 93.582031 188.757812 C 93.523438 187.507812 93.402344 186.136719 93.738281 184.238281 C 93.855469 183.511719 93.699219 182.789062 93.246094 182.203125 C 92.933594 181.769531 92.484375 181.457031 91.976562 181.28125 C 92.523438 179.597656 93.382812 177.582031 94.675781 175.097656 C 97.75 169.183594 103.996094 165.210938 110.707031 159.75 C 121.613281 150.863281 133.824219 138.53125 137.976562 110.832031 C 143.632812 73.015625 115.09375 35.996094 77.273438 31.867188 C 39.496094 27.738281 5.75 57.785156 0.933594 95.679688 C -2.277344 120.875 7.039062 136.140625 16.042969 148.101562 C 21.585938 155.460938 27.105469 161.414062 28.828125 167.894531 C 29.570312 170.632812 30.019531 172.804688 30.257812 174.546875 Z M 44.449219 212.523438 C 43.019531 212.328125 41.648438 212.015625 40.375 211.5625 C 40.375 214.421875 43.214844 216.75 46.699219 217.144531 L 67.058594 219.375 C 70.5 219.746094 73.359375 217.964844 74.339844 215.28125 C 73.59375 215.382812 72.8125 215.421875 72.027344 215.421875 L 71.597656 215.421875 C 71.519531 215.421875 71.441406 215.421875 71.34375 215.421875 L 71.207031 215.402344 L 70.972656 215.402344 L 70.738281 215.382812 L 70.460938 215.363281 L 70.265625 215.34375 L 70.050781 215.320312 L 69.894531 215.300781 L 44.78125 212.5625 L 44.664062 212.542969 Z M 36.832031 201.425781 C 36.871094 202.636719 37.65625 203.753906 38.75 204.691406 C 39.046875 204.949219 39.378906 205.183594 39.710938 205.417969 C 39.75 205.417969 39.769531 205.4375 39.789062 205.457031 C 41.257812 206.375 43.097656 207.042969 45.152344 207.277344 L 45.269531 207.296875 L 45.347656 207.316406 C 52.960938 208.136719 62.867188 209.234375 70.480469 210.054688 L 70.582031 210.078125 L 70.679688 210.078125 C 72.753906 210.292969 74.632812 210.015625 76.199219 209.410156 C 76.316406 209.351562 76.453125 209.3125 76.589844 209.292969 C 78.175781 208.609375 79.371094 207.53125 79.957031 206.160156 C 78.273438 206.53125 76.472656 206.652344 74.613281 206.492188 L 74.398438 206.472656 L 74.203125 206.453125 C 64.589844 205.398438 52.101562 204.027344 42.492188 202.988281 L 42.253906 202.949219 L 42.019531 202.929688 L 41.921875 202.910156 L 41.707031 202.871094 L 41.628906 202.871094 C 39.945312 202.597656 38.320312 202.109375 36.832031 201.425781 Z M 88.257812 186.117188 L 33.09375 180.085938 C 32.820312 181.847656 32.332031 183.257812 32.117188 185.214844 C 31.683594 189.113281 33.464844 192.753906 36.5 195.101562 C 36.519531 195.121094 36.539062 195.140625 36.558594 195.160156 C 36.988281 195.472656 37.441406 195.765625 37.890625 196.042969 L 37.988281 196.101562 L 38.066406 196.140625 C 39.320312 196.84375 40.710938 197.351562 42.214844 197.605469 L 42.453125 197.664062 C 42.550781 197.664062 42.648438 197.683594 42.746094 197.703125 L 42.921875 197.722656 L 43.058594 197.742188 L 74.789062 201.207031 L 74.945312 201.226562 C 81.621094 201.875 86.925781 197.253906 88.21875 191.089844 C 88.414062 190.128906 88.316406 189.269531 88.277344 188.269531 C 88.257812 187.605469 88.21875 186.898438 88.257812 186.117188 Z M 35.34375 172.863281 L 87.335938 178.5625 C 87.941406 176.878906 88.804688 174.941406 90 172.648438 C 93.363281 166.171875 100.019531 161.648438 107.359375 155.660156 C 117.539062 147.378906 128.894531 135.867188 132.75 110.070312 C 137.996094 75.109375 111.628906 40.929688 76.6875 37.113281 C 41.726562 33.277344 10.621094 61.269531 6.160156 96.347656 C 3.203125 119.699219 11.914062 133.851562 20.253906 144.929688 C 26.28125 152.917969 32.039062 159.496094 33.9375 166.523438 C 34.601562 169.046875 35.050781 171.121094 35.34375 172.863281 " fill-opacity="1" fill-rule="evenodd"/></g><path fill="#000000" d="M 70.324219 134.378906 C 68.054688 135.203125 65.492188 135.339844 63.101562 133.988281 C 64.160156 132.695312 65.039062 131.171875 65.667969 129.351562 C 66.390625 127.273438 66.371094 124.398438 65.433594 122.144531 C 64.296875 119.386719 61.988281 117.46875 58.308594 117.996094 C 56.445312 118.269531 54.765625 119.660156 53.882812 121.988281 C 52.765625 124.90625 52.941406 129.546875 55.371094 133.558594 C 55.058594 133.734375 54.722656 133.890625 54.390625 134.046875 C 54.175781 134.144531 53.980469 134.222656 53.765625 134.300781 C 53.375 133.226562 52.960938 132.246094 52.550781 131.40625 C 51.320312 128.878906 49.871094 126.023438 48.03125 124.183594 C 46.367188 122.519531 44.410156 121.578125 42.097656 121.675781 C 40.0625 121.773438 38.320312 122.988281 37.226562 124.925781 C 35.914062 127.234375 35.640625 130.621094 36.851562 133.226562 C 37.949219 135.554688 40.414062 138.335938 43.117188 139.882812 C 45.308594 141.132812 47.65625 141.546875 49.695312 140.878906 C 49.832031 140.839844 50.027344 140.78125 50.28125 140.742188 C 54.078125 154.621094 56.507812 177.757812 56.507812 177.757812 C 56.664062 179.207031 57.972656 180.265625 59.402344 180.105469 C 60.871094 179.949219 61.910156 178.640625 61.75 177.191406 C 61.75 177.191406 59.207031 153.859375 55.3125 139.371094 C 55.703125 139.214844 56.113281 139.039062 56.527344 138.863281 C 57.347656 138.511719 58.167969 138.082031 58.992188 137.570312 C 63.613281 141.132812 68.957031 140.800781 73.300781 138.863281 C 73.808594 139.351562 74.359375 139.804688 74.945312 140.214844 C 75.589844 140.703125 76.296875 141.113281 77.019531 141.507812 C 70.070312 155.953125 64.042969 177.894531 64.042969 177.894531 C 63.671875 179.304688 64.492188 180.753906 65.902344 181.125 C 67.3125 181.515625 68.757812 180.675781 69.132812 179.265625 C 69.132812 179.265625 75.023438 157.203125 81.796875 143.484375 C 84.027344 144.167969 85.789062 144.460938 86.257812 144.539062 C 91.289062 145.34375 97.144531 143.308594 98.710938 138.589844 C 100.53125 133.207031 99.082031 128.429688 95.007812 126.921875 C 89.800781 125.023438 85.613281 128.722656 82.851562 131.875 C 81.738281 133.167969 80.582031 134.871094 79.449219 136.847656 C 78.957031 136.574219 78.488281 136.261719 78.019531 135.945312 L 77.960938 135.886719 C 80.386719 133.792969 82.207031 131.191406 83.089844 128.859375 C 83.988281 126.492188 83.929688 124.300781 83.109375 122.714844 C 82.441406 121.421875 81.308594 120.382812 79.507812 119.914062 C 76.199219 119.015625 73.808594 120.425781 72.164062 122.832031 C 70.953125 124.613281 70.246094 127.078125 69.933594 129.113281 C 69.640625 131.09375 69.796875 132.835938 70.324219 134.378906 Z M 48.675781 135.710938 C 48.402344 134.988281 48.109375 134.320312 47.816406 133.734375 C 46.972656 131.992188 46.054688 130.054688 44.878906 128.585938 C 44.171875 127.6875 43.410156 126.902344 42.332031 126.941406 C 42.214844 126.960938 42.136719 127.078125 42.039062 127.175781 C 41.84375 127.410156 41.707031 127.6875 41.589844 128.019531 C 41.257812 128.917969 41.199219 130.054688 41.628906 130.976562 C 42.351562 132.5 43.957031 134.28125 45.71875 135.300781 C 46.503906 135.75 47.304688 136.101562 48.03125 135.867188 C 48.167969 135.828125 48.382812 135.769531 48.675781 135.710938 Z M 84.378906 138.746094 C 85.75 139.117188 86.789062 139.273438 87.082031 139.332031 C 88.53125 139.546875 90.136719 139.449219 91.484375 138.941406 C 92.484375 138.550781 93.382812 137.941406 93.71875 136.925781 C 94.167969 135.535156 94.363281 134.203125 94.128906 133.128906 C 94.011719 132.558594 93.738281 132.089844 93.1875 131.894531 C 92.035156 131.464844 91.015625 131.777344 90.136719 132.304688 C 88.824219 133.089844 87.746094 134.320312 86.828125 135.359375 C 86.023438 136.28125 85.203125 137.433594 84.378906 138.746094 Z M 59.460938 130.054688 C 59.949219 129.351562 60.363281 128.546875 60.695312 127.648438 C 61.027344 126.648438 61.027344 125.257812 60.578125 124.183594 C 60.34375 123.613281 59.910156 123.144531 59.207031 123.203125 C 59.109375 123.339844 58.777344 123.867188 58.679688 124.28125 C 58.347656 125.53125 58.40625 127.15625 58.933594 128.78125 C 59.070312 129.214844 59.246094 129.644531 59.460938 130.054688 Z M 75.101562 131.367188 C 76.53125 130.015625 77.609375 128.449219 78.15625 127 C 78.351562 126.511719 78.46875 126.042969 78.46875 125.609375 C 78.488281 125.335938 78.429688 125.082031 78.136719 125.003906 C 77.390625 124.808594 76.902344 125.238281 76.53125 125.789062 C 75.746094 126.960938 75.335938 128.585938 75.140625 129.917969 C 75.0625 130.425781 75.042969 130.914062 75.101562 131.367188 " fill-opacity="1" fill-rule="evenodd"/><path fill="#000000" d="M 78.332031 18.144531 L 79.996094 2.898438 C 80.152344 1.46875 79.113281 0.15625 77.667969 0 C 76.21875 -0.15625 74.90625 0.882812 74.75 2.328125 L 73.085938 17.578125 C 72.929688 19.027344 73.984375 20.320312 75.414062 20.476562 C 76.863281 20.632812 78.175781 19.59375 78.332031 18.144531 " fill-opacity="1" fill-rule="evenodd"/><path fill="#000000" d="M 115.269531 32.453125 L 125.3125 21.101562 C 126.269531 20.003906 126.171875 18.339844 125.078125 17.382812 C 124 16.402344 122.316406 16.519531 121.355469 17.597656 L 111.316406 28.949219 C 110.355469 30.046875 110.453125 31.710938 111.550781 32.691406 C 112.625 33.648438 114.308594 33.550781 115.269531 32.453125 " fill-opacity="1" fill-rule="evenodd"/><g clip-path="url(#533ed25e43)"><path fill="#000000" d="M 134.511719 56.746094 L 148.175781 50.210938 C 149.484375 49.5625 150.054688 47.996094 149.425781 46.6875 C 148.800781 45.375 147.214844 44.804688 145.902344 45.433594 L 132.242188 51.992188 C 130.910156 52.617188 130.363281 54.183594 130.988281 55.496094 C 131.613281 56.824219 133.199219 57.375 134.511719 56.746094 " fill-opacity="1" fill-rule="evenodd"/></g><path fill="#000000" d="M 44.722656 21.984375 L 38.808594 8.027344 C 38.242188 6.675781 36.695312 6.046875 35.34375 6.617188 C 34.015625 7.183594 33.386719 8.730469 33.957031 10.082031 L 39.847656 24.039062 C 40.414062 25.367188 41.980469 25.996094 43.3125 25.425781 C 44.664062 24.859375 45.289062 23.3125 44.722656 21.984375 " fill-opacity="1" fill-rule="evenodd"/><path fill="#000000" d="M 17.90625 38.054688 L 5.984375 28.675781 C 4.828125 27.777344 3.183594 27.992188 2.285156 29.128906 C 1.382812 30.28125 1.578125 31.925781 2.714844 32.828125 L 14.636719 42.203125 C 15.789062 43.105469 17.453125 42.886719 18.355469 41.753906 C 19.253906 40.597656 19.039062 38.953125 17.90625 38.054688 " fill-opacity="1" fill-rule="evenodd"/></svg>