<svg xmlns="http://www.w3.org/2000/svg" xmlns:xlink="http://www.w3.org/1999/xlink" width="400" zoomAndPan="magnify" viewBox="0 0 300 225" height="300" preserveAspectRatio="xMidYMid meet" version="1.0"><defs><clipPath id="43e24aefa7"><path d="M 0 0.0234375 L 300 0.0234375 L 300 225 L 0 225 Z M 0 0.0234375 " clip-rule="nonzero"/></clipPath><clipPath id="86052d0643"><path d="M 245.953125 152.0625 C 246.753906 152.0625 247.554688 151.757812 248.164062 151.144531 L 262.824219 136.460938 C 263.40625 135.875 263.738281 135.082031 263.738281 134.25 C 263.738281 133.421875 263.40625 132.625 262.824219 132.035156 L 248.164062 117.355469 C 246.941406 116.132812 244.960938 116.132812 243.746094 117.355469 C 242.523438 118.578125 242.523438 120.558594 243.746094 121.78125 L 256.191406 134.25 L 243.746094 146.71875 C 242.523438 147.941406 242.523438 149.921875 243.746094 151.144531 C 244.355469 151.757812 245.15625 152.0625 245.953125 152.0625 Z M 54.058594 152.0625 C 54.859375 152.0625 55.660156 151.757812 56.269531 151.144531 C 57.492188 149.925781 57.492188 147.941406 56.269531 146.71875 L 43.824219 134.253906 L 56.269531 121.78125 C 57.492188 120.5625 57.492188 118.578125 56.269531 117.355469 C 55.050781 116.132812 53.070312 116.132812 51.851562 117.355469 L 37.195312 132.039062 C 36.605469 132.625 36.277344 133.421875 36.277344 134.253906 C 36.277344 135.082031 36.605469 135.875 37.195312 136.464844 L 51.851562 151.144531 C 52.460938 151.757812 53.257812 152.0625 54.058594 152.0625 Z M 122.800781 190.128906 C 121.039062 190.128906 119.609375 191.5625 119.609375 193.320312 C 119.609375 195.082031 121.039062 196.515625 122.800781 196.515625 L 177.210938 196.515625 C 178.96875 196.515625 180.402344 195.082031 180.402344 193.320312 C 180.402344 191.5625 178.96875 190.132812 177.210938 190.132812 Z M 177.210938 202.777344 C 182.417969 202.777344 186.652344 198.539062 186.652344 193.320312 C 186.652344 188.109375 182.417969 183.867188 177.210938 183.867188 L 122.800781 183.871094 C 117.59375 183.871094 113.359375 188.109375 113.359375 193.320312 C 113.359375 198.539062 117.59375 202.777344 122.800781 202.777344 Z M 197.4375 173.214844 C 199.164062 173.214844 200.5625 171.8125 200.5625 170.085938 C 200.5625 168.355469 199.164062 166.953125 197.4375 166.953125 L 102.574219 166.953125 C 100.847656 166.953125 99.449219 168.355469 99.449219 170.085938 C 99.449219 171.8125 100.847656 173.214844 102.574219 173.214844 Z M 153.191406 83.734375 C 150.679688 83.734375 148.632812 85.78125 148.632812 88.300781 C 148.632812 90.820312 150.679688 92.867188 153.191406 92.867188 C 155.707031 92.867188 157.75 90.820312 157.75 88.300781 C 157.75 85.78125 155.707031 83.734375 153.191406 83.734375 Z M 153.191406 99.128906 C 159.152344 99.128906 164.003906 94.269531 164.003906 88.300781 C 164.003906 82.328125 159.152344 77.472656 153.191406 77.472656 C 147.234375 77.472656 142.382812 82.328125 142.382812 88.300781 C 142.382812 94.269531 147.234375 99.128906 153.191406 99.128906 Z M 172.28125 123.652344 L 162.945312 107.453125 L 153.703125 123.496094 C 153.671875 123.542969 153.648438 123.585938 153.617188 123.636719 L 148.082031 133.242188 C 148.71875 133.285156 149.359375 133.304688 150.007812 133.304688 C 158.777344 133.304688 166.699219 129.59375 172.28125 123.652344 Z M 121.671875 114.242188 L 133.179688 94.285156 C 133.734375 93.316406 134.769531 92.71875 135.882812 92.71875 C 137 92.71875 138.035156 93.316406 138.589844 94.285156 L 150.953125 115.734375 L 160.238281 99.628906 C 160.796875 98.660156 161.828125 98.0625 162.945312 98.0625 C 164.0625 98.0625 165.09375 98.660156 165.648438 99.628906 L 176.367188 118.214844 C 179.066406 113.652344 180.617188 108.328125 180.617188 102.644531 C 180.617188 85.738281 166.886719 71.988281 150.007812 71.988281 C 133.128906 71.988281 119.398438 85.742188 119.398438 102.644531 C 119.398438 106.746094 120.207031 110.664062 121.671875 114.242188 Z M 141.519531 132.105469 L 147.347656 121.996094 L 135.882812 102.109375 L 125.21875 120.613281 C 129.175781 126.078125 134.890625 130.1875 141.519531 132.105469 Z M 142.542969 138.804688 C 144.953125 139.304688 147.449219 139.566406 150.007812 139.566406 C 161.359375 139.566406 171.535156 134.394531 178.300781 126.285156 C 178.46875 126.117188 178.613281 125.9375 178.742188 125.742188 C 183.820312 119.414062 186.867188 111.382812 186.867188 102.644531 C 186.867188 82.289062 170.332031 65.726562 150.007812 65.726562 C 129.683594 65.726562 113.148438 82.289062 113.148438 102.644531 C 113.148438 109.808594 115.195312 116.5 118.734375 122.164062 C 118.828125 122.355469 118.941406 122.535156 119.074219 122.707031 C 124.296875 130.753906 132.5625 136.648438 142.222656 138.734375 C 142.328125 138.765625 142.433594 138.789062 142.542969 138.804688 Z M 229.03125 156.300781 C 230.757812 156.300781 232.15625 154.902344 232.15625 153.171875 C 232.15625 151.441406 230.757812 150.042969 229.03125 150.042969 L 70.980469 150.042969 C 69.253906 150.042969 67.855469 151.441406 67.855469 153.171875 C 67.855469 154.902344 69.253906 156.300781 70.980469 156.300781 Z M 18.75 211.542969 C 20.476562 211.542969 21.875 210.140625 21.875 208.414062 L 21.875 60.089844 C 21.875 58.359375 20.476562 56.960938 18.75 56.960938 C 17.023438 56.960938 15.625 58.359375 15.625 60.089844 L 15.625 208.414062 C 15.625 210.140625 17.023438 211.542969 18.75 211.542969 Z M 281.261719 211.542969 C 282.988281 211.542969 284.386719 210.140625 284.386719 208.414062 L 284.386719 60.089844 C 284.386719 58.359375 282.988281 56.960938 281.261719 56.960938 C 279.535156 56.960938 278.136719 58.359375 278.136719 60.089844 L 278.136719 208.414062 C 278.136719 210.140625 279.535156 211.542969 281.261719 211.542969 Z M 185.652344 16.515625 L 267.6875 16.515625 C 269.96875 16.515625 271.828125 18.378906 271.828125 20.664062 C 271.828125 22.953125 269.96875 24.816406 267.6875 24.816406 L 185.652344 24.816406 C 183.375 24.816406 181.515625 22.953125 181.515625 20.664062 C 181.515625 18.378906 183.375 16.515625 185.652344 16.515625 Z M 267.6875 31.078125 L 185.652344 31.078125 C 179.925781 31.078125 175.265625 26.410156 175.265625 20.667969 C 175.265625 14.925781 179.925781 10.253906 185.652344 10.253906 L 267.6875 10.253906 C 273.417969 10.253906 278.078125 14.925781 278.078125 20.667969 C 278.078125 26.410156 273.417969 31.078125 267.6875 31.078125 Z M 80.726562 16.460938 C 83.046875 16.460938 84.925781 18.34375 84.925781 20.667969 C 84.925781 22.984375 83.046875 24.875 80.726562 24.875 C 78.414062 24.875 76.527344 22.984375 76.527344 20.667969 C 76.527344 18.34375 78.414062 16.460938 80.726562 16.460938 Z M 80.726562 31.132812 C 74.96875 31.132812 70.277344 26.4375 70.277344 20.667969 C 70.277344 14.894531 74.96875 10.199219 80.726562 10.199219 C 86.492188 10.199219 91.179688 14.894531 91.179688 20.667969 C 91.179688 26.4375 86.492188 31.132812 80.726562 31.132812 Z M 56.558594 16.460938 C 58.875 16.460938 60.757812 18.34375 60.757812 20.667969 C 60.757812 22.984375 58.875 24.875 56.558594 24.875 C 54.242188 24.875 52.359375 22.984375 52.359375 20.667969 C 52.359375 18.34375 54.242188 16.460938 56.558594 16.460938 Z M 56.558594 31.132812 C 50.796875 31.132812 46.109375 26.4375 46.109375 20.667969 C 46.109375 14.894531 50.796875 10.199219 56.558594 10.199219 C 62.320312 10.199219 67.007812 14.894531 67.007812 20.667969 C 67.007812 26.4375 62.320312 31.132812 56.558594 31.132812 Z M 32.386719 16.460938 C 34.703125 16.460938 36.585938 18.34375 36.585938 20.667969 C 36.585938 22.984375 34.703125 24.875 32.386719 24.875 C 30.074219 24.875 28.1875 22.984375 28.1875 20.667969 C 28.1875 18.34375 30.074219 16.460938 32.386719 16.460938 Z M 32.386719 31.132812 C 26.625 31.132812 21.9375 26.4375 21.9375 20.667969 C 21.9375 14.894531 26.625 10.199219 32.386719 10.199219 C 38.148438 10.199219 42.835938 14.894531 42.835938 20.667969 C 42.835938 26.4375 38.148438 31.132812 32.386719 31.132812 Z M 3.125 41.308594 L 300.015625 41.308594 L 300.015625 13.136719 C 300.015625 5.902344 294.140625 0.0234375 286.925781 0.0234375 L 13.089844 0.0234375 C 5.871094 0.0234375 0 5.90625 0 13.136719 L 0 41.308594 Z M 286.925781 227.195312 L 13.089844 227.195312 C 5.871094 227.195312 0 221.3125 0 214.085938 L 0 47.570312 L 300.015625 47.570312 L 300.015625 214.085938 C 300.015625 221.3125 294.140625 227.195312 286.925781 227.195312 " clip-rule="nonzero"/></clipPath><clipPath id="677918cf04"><path d="M -101.921875 63.816406 L 84.246094 362.246094 L 401.933594 163.402344 L 215.765625 -135.023438 Z M -101.921875 63.816406 " clip-rule="nonzero"/></clipPath><linearGradient x1="-0.316583" gradientTransform="matrix(193.36809, -121.029518, 120.829788, 193.68771, 53.362522, 174.093574)" y1="0" x2="1.321184" gradientUnits="userSpaceOnUse" y2="0" id="8ac98e44f7"><stop stop-opacity="1" stop-color="rgb(92.89856%, 6.298828%, 39.599609%)" offset="0"/><stop stop-opacity="1" stop-color="rgb(92.89856%, 6.298828%, 39.599609%)" offset="0.125"/><stop stop-opacity="1" stop-color="rgb(92.89856%, 6.298828%, 39.599609%)" offset="0.1875"/><stop stop-opacity="1" stop-color="rgb(92.680359%, 6.42395%, 39.724731%)" offset="0.191406"/><stop stop-opacity="1" stop-color="rgb(92.462158%, 6.549072%, 39.849854%)" offset="0.195312"/><stop stop-opacity="1" stop-color="rgb(91.900635%, 7.10907%, 40.238953%)" offset="0.199219"/><stop stop-opacity="1" stop-color="rgb(91.340637%, 7.670593%, 40.628052%)" offset="0.203125"/><stop stop-opacity="1" stop-color="rgb(90.664673%, 8.143616%, 41.017151%)" offset="0.207031"/><stop stop-opacity="1" stop-color="rgb(89.990234%, 8.616638%, 41.407776%)" offset="0.210937"/><stop stop-opacity="1" stop-color="rgb(89.306641%, 9.101868%, 41.973877%)" offset="0.214844"/><stop stop-opacity="1" stop-color="rgb(88.624573%, 9.587097%, 42.539978%)" offset="0.21875"/><stop stop-opacity="1" stop-color="rgb(88.017273%, 10.203552%, 42.930603%)" offset="0.222656"/><stop stop-opacity="1" stop-color="rgb(87.409973%, 10.821533%, 43.321228%)" offset="0.226562"/><stop stop-opacity="1" stop-color="rgb(86.730957%, 11.233521%, 43.733215%)" offset="0.230469"/><stop stop-opacity="1" stop-color="rgb(86.053467%, 11.645508%, 44.145203%)" offset="0.234375"/><stop stop-opacity="1" stop-color="rgb(85.350037%, 12.184143%, 44.534302%)" offset="0.238281"/><stop stop-opacity="1" stop-color="rgb(84.648132%, 12.724304%, 44.924927%)" offset="0.242187"/><stop stop-opacity="1" stop-color="rgb(84.068298%, 13.215637%, 45.314026%)" offset="0.246094"/><stop stop-opacity="1" stop-color="rgb(83.48999%, 13.708496%, 45.703125%)" offset="0.25"/><stop stop-opacity="1" stop-color="rgb(82.76062%, 14.195251%, 46.292114%)" offset="0.253906"/><stop stop-opacity="1" stop-color="rgb(82.03125%, 14.683533%, 46.882629%)" offset="0.257812"/><stop stop-opacity="1" stop-color="rgb(81.451416%, 15.272522%, 47.251892%)" offset="0.261719"/><stop stop-opacity="1" stop-color="rgb(80.873108%, 15.863037%, 47.621155%)" offset="0.265625"/><stop stop-opacity="1" stop-color="rgb(80.114746%, 16.423035%, 48.031616%)" offset="0.269531"/><stop stop-opacity="1" stop-color="rgb(79.356384%, 16.983032%, 48.442078%)" offset="0.273437"/><stop stop-opacity="1" stop-color="rgb(78.656006%, 17.401123%, 48.831177%)" offset="0.277344"/><stop stop-opacity="1" stop-color="rgb(77.955627%, 17.82074%, 49.220276%)" offset="0.28125"/><stop stop-opacity="1" stop-color="rgb(77.426147%, 18.409729%, 49.710083%)" offset="0.285156"/><stop stop-opacity="1" stop-color="rgb(76.898193%, 19.000244%, 50.201416%)" offset="0.289062"/><stop stop-opacity="1" stop-color="rgb(76.208496%, 19.47937%, 50.689697%)" offset="0.292969"/><stop stop-opacity="1" stop-color="rgb(75.518799%, 19.958496%, 51.179504%)" offset="0.296875"/><stop stop-opacity="1" stop-color="rgb(74.848938%, 20.457458%, 51.568604%)" offset="0.300781"/><stop stop-opacity="1" stop-color="rgb(74.180603%, 20.957947%, 51.957703%)" offset="0.304687"/><stop stop-opacity="1" stop-color="rgb(73.554993%, 21.569824%, 52.320862%)" offset="0.308594"/><stop stop-opacity="1" stop-color="rgb(72.929382%, 22.183228%, 52.684021%)" offset="0.3125"/><stop stop-opacity="1" stop-color="rgb(72.146606%, 22.659302%, 53.100586%)" offset="0.316406"/><stop stop-opacity="1" stop-color="rgb(71.363831%, 23.135376%, 53.517151%)" offset="0.320312"/><stop stop-opacity="1" stop-color="rgb(70.783997%, 23.616028%, 54.005432%)" offset="0.324219"/><stop stop-opacity="1" stop-color="rgb(70.205688%, 24.09668%, 54.493713%)" offset="0.328125"/><stop stop-opacity="1" stop-color="rgb(69.514465%, 24.685669%, 54.983521%)" offset="0.332031"/><stop stop-opacity="1" stop-color="rgb(68.823242%, 25.274658%, 55.474854%)" offset="0.335937"/><stop stop-opacity="1" stop-color="rgb(68.174744%, 25.741577%, 55.863953%)" offset="0.339844"/><stop stop-opacity="1" stop-color="rgb(67.527771%, 26.210022%, 56.254578%)" offset="0.34375"/><stop stop-opacity="1" stop-color="rgb(66.934204%, 26.74408%, 56.666565%)" offset="0.347656"/><stop stop-opacity="1" stop-color="rgb(66.340637%, 27.278137%, 57.078552%)" offset="0.351562"/><stop stop-opacity="1" stop-color="rgb(65.612793%, 27.845764%, 57.444763%)" offset="0.355469"/><stop stop-opacity="1" stop-color="rgb(64.884949%, 28.413391%, 57.8125%)" offset="0.359375"/><stop stop-opacity="1" stop-color="rgb(64.198303%, 28.898621%, 58.299255%)" offset="0.363281"/><stop stop-opacity="1" stop-color="rgb(63.513184%, 29.385376%, 58.786011%)" offset="0.367187"/><stop stop-opacity="1" stop-color="rgb(62.954712%, 29.878235%, 59.27887%)" offset="0.371094"/><stop stop-opacity="1" stop-color="rgb(62.397766%, 30.371094%, 59.771729%)" offset="0.375"/><stop stop-opacity="1" stop-color="rgb(61.721802%, 30.960083%, 60.160828%)" offset="0.378906"/><stop stop-opacity="1" stop-color="rgb(61.047363%, 31.550598%, 60.551453%)" offset="0.382812"/><stop stop-opacity="1" stop-color="rgb(60.392761%, 31.988525%, 60.940552%)" offset="0.386719"/><stop stop-opacity="1" stop-color="rgb(59.738159%, 32.427979%, 61.329651%)" offset="0.390625"/><stop stop-opacity="1" stop-color="rgb(58.963013%, 32.96814%, 61.769104%)" offset="0.394531"/><stop stop-opacity="1" stop-color="rgb(58.189392%, 33.509827%, 62.208557%)" offset="0.398437"/><stop stop-opacity="1" stop-color="rgb(57.554626%, 34.098816%, 62.748718%)" offset="0.402344"/><stop stop-opacity="1" stop-color="rgb(56.921387%, 34.687805%, 63.288879%)" offset="0.40625"/><stop stop-opacity="1" stop-color="rgb(56.341553%, 35.162354%, 63.677979%)" offset="0.410156"/><stop stop-opacity="1" stop-color="rgb(55.761719%, 35.636902%, 64.067078%)" offset="0.414062"/><stop stop-opacity="1" stop-color="rgb(55.056763%, 36.141968%, 64.456177%)" offset="0.417969"/><stop stop-opacity="1" stop-color="rgb(54.351807%, 36.647034%, 64.846802%)" offset="0.421875"/><stop stop-opacity="1" stop-color="rgb(53.69873%, 37.185669%, 65.235901%)" offset="0.425781"/><stop stop-opacity="1" stop-color="rgb(53.045654%, 37.72583%, 65.626526%)" offset="0.429687"/><stop stop-opacity="1" stop-color="rgb(52.481079%, 38.20343%, 66.033936%)" offset="0.433594"/><stop stop-opacity="1" stop-color="rgb(51.916504%, 38.682556%, 66.441345%)" offset="0.4375"/><stop stop-opacity="1" stop-color="rgb(51.164246%, 39.233398%, 67.03949%)" offset="0.441406"/><stop stop-opacity="1" stop-color="rgb(50.413513%, 39.784241%, 67.637634%)" offset="0.445312"/><stop stop-opacity="1" stop-color="rgb(49.740601%, 40.37323%, 68.000793%)" offset="0.449219"/><stop stop-opacity="1" stop-color="rgb(49.069214%, 40.963745%, 68.363953%)" offset="0.453125"/><stop stop-opacity="1" stop-color="rgb(48.562622%, 41.352844%, 68.681335%)" offset="0.457031"/><stop stop-opacity="1" stop-color="rgb(48.05603%, 41.743469%, 68.998718%)" offset="0.460937"/><stop stop-opacity="1" stop-color="rgb(47.715759%, 42.11731%, 69.259644%)" offset="0.464844"/><stop stop-opacity="1" stop-color="rgb(47.375488%, 42.49115%, 69.522095%)" offset="0.46875"/><stop stop-opacity="1" stop-color="rgb(46.968079%, 42.863464%, 69.86084%)" offset="0.472656"/><stop stop-opacity="1" stop-color="rgb(46.562195%, 43.235779%, 70.199585%)" offset="0.476562"/><stop stop-opacity="1" stop-color="rgb(46.139526%, 43.566895%, 70.489502%)" offset="0.480469"/><stop stop-opacity="1" stop-color="rgb(45.716858%, 43.899536%, 70.780945%)" offset="0.484375"/><stop stop-opacity="1" stop-color="rgb(45.327759%, 44.178772%, 70.970154%)" offset="0.488281"/><stop stop-opacity="1" stop-color="rgb(44.93866%, 44.459534%, 71.159363%)" offset="0.492187"/><stop stop-opacity="1" stop-color="rgb(44.548035%, 44.848633%, 71.548462%)" offset="0.496094"/><stop stop-opacity="1" stop-color="rgb(44.158936%, 45.239258%, 71.939087%)" offset="0.5"/><stop stop-opacity="1" stop-color="rgb(43.768311%, 45.628357%, 72.113037%)" offset="0.503906"/><stop stop-opacity="1" stop-color="rgb(43.379211%, 46.018982%, 72.288513%)" offset="0.507812"/><stop stop-opacity="1" stop-color="rgb(43.002319%, 46.408081%, 72.593689%)" offset="0.511719"/><stop stop-opacity="1" stop-color="rgb(42.625427%, 46.79718%, 72.898865%)" offset="0.515625"/><stop stop-opacity="1" stop-color="rgb(42.222595%, 47.215271%, 73.187256%)" offset="0.519531"/><stop stop-opacity="1" stop-color="rgb(41.821289%, 47.633362%, 73.477173%)" offset="0.523438"/><stop stop-opacity="1" stop-color="rgb(41.430664%, 47.994995%, 73.788452%)" offset="0.527344"/><stop stop-opacity="1" stop-color="rgb(41.041565%, 48.356628%, 74.099731%)" offset="0.53125"/><stop stop-opacity="1" stop-color="rgb(40.852356%, 48.745728%, 74.36676%)" offset="0.535156"/><stop stop-opacity="1" stop-color="rgb(40.663147%, 49.134827%, 74.635315%)" offset="0.539062"/><stop stop-opacity="1" stop-color="rgb(40.272522%, 49.523926%, 74.966431%)" offset="0.542969"/><stop stop-opacity="1" stop-color="rgb(39.883423%, 49.914551%, 75.299072%)" offset="0.546875"/><stop stop-opacity="1" stop-color="rgb(39.494324%, 50.256348%, 75.546265%)" offset="0.550781"/><stop stop-opacity="1" stop-color="rgb(39.105225%, 50.59967%, 75.793457%)" offset="0.554687"/><stop stop-opacity="1" stop-color="rgb(38.702393%, 50.848389%, 75.994873%)" offset="0.558594"/><stop stop-opacity="1" stop-color="rgb(38.301086%, 51.098633%, 76.197815%)" offset="0.5625"/><stop stop-opacity="1" stop-color="rgb(37.892151%, 51.525879%, 76.625061%)" offset="0.566406"/><stop stop-opacity="1" stop-color="rgb(37.484741%, 51.953125%, 77.052307%)" offset="0.570313"/><stop stop-opacity="1" stop-color="rgb(37.124634%, 52.29187%, 77.224731%)" offset="0.574219"/><stop stop-opacity="1" stop-color="rgb(36.766052%, 52.632141%, 77.398682%)" offset="0.578125"/><stop stop-opacity="1" stop-color="rgb(36.376953%, 53.02124%, 77.69928%)" offset="0.582031"/><stop stop-opacity="1" stop-color="rgb(35.987854%, 53.410339%, 77.999878%)" offset="0.585938"/><stop stop-opacity="1" stop-color="rgb(35.597229%, 53.799438%, 78.244019%)" offset="0.589844"/><stop stop-opacity="1" stop-color="rgb(35.20813%, 54.190063%, 78.489685%)" offset="0.59375"/><stop stop-opacity="1" stop-color="rgb(34.806824%, 54.59137%, 78.843689%)" offset="0.597656"/><stop stop-opacity="1" stop-color="rgb(34.405518%, 54.992676%, 79.199219%)" offset="0.601562"/><stop stop-opacity="1" stop-color="rgb(33.976746%, 55.419922%, 79.473877%)" offset="0.605469"/><stop stop-opacity="1" stop-color="rgb(33.5495%, 55.848694%, 79.748535%)" offset="0.609375"/><stop stop-opacity="1" stop-color="rgb(33.1604%, 56.237793%, 79.937744%)" offset="0.613281"/><stop stop-opacity="1" stop-color="rgb(32.771301%, 56.628418%, 80.128479%)" offset="0.617188"/><stop stop-opacity="1" stop-color="rgb(32.43103%, 57.003784%, 80.517578%)" offset="0.621094"/><stop stop-opacity="1" stop-color="rgb(32.090759%, 57.380676%, 80.906677%)" offset="0.625"/><stop stop-opacity="1" stop-color="rgb(31.70166%, 57.533264%, 81.095886%)" offset="0.628906"/><stop stop-opacity="1" stop-color="rgb(31.312561%, 57.685852%, 81.286621%)" offset="0.632812"/><stop stop-opacity="1" stop-color="rgb(30.921936%, 58.074951%, 81.67572%)" offset="0.636719"/><stop stop-opacity="1" stop-color="rgb(30.532837%, 58.465576%, 82.066345%)" offset="0.640625"/><stop stop-opacity="1" stop-color="rgb(30.093384%, 58.905029%, 82.287598%)" offset="0.644531"/><stop stop-opacity="1" stop-color="rgb(29.653931%, 59.344482%, 82.50885%)" offset="0.648438"/><stop stop-opacity="1" stop-color="rgb(29.263306%, 59.733582%, 82.803345%)" offset="0.652344"/><stop stop-opacity="1" stop-color="rgb(28.874207%, 60.124207%, 83.099365%)" offset="0.65625"/><stop stop-opacity="1" stop-color="rgb(28.483582%, 60.513306%, 83.351135%)" offset="0.660156"/><stop stop-opacity="1" stop-color="rgb(28.094482%, 60.903931%, 83.602905%)" offset="0.664062"/><stop stop-opacity="1" stop-color="rgb(27.754211%, 61.29303%, 83.950806%)" offset="0.667969"/><stop stop-opacity="1" stop-color="rgb(27.415466%, 61.682129%, 84.298706%)" offset="0.671875"/><stop stop-opacity="1" stop-color="rgb(27.026367%, 62.063599%, 84.529114%)" offset="0.675781"/><stop stop-opacity="1" stop-color="rgb(26.637268%, 62.446594%, 84.761047%)" offset="0.679687"/><stop stop-opacity="1" stop-color="rgb(26.24054%, 62.800598%, 84.957886%)" offset="0.683594"/><stop stop-opacity="1" stop-color="rgb(25.843811%, 63.154602%, 85.154724%)" offset="0.6875"/><stop stop-opacity="1" stop-color="rgb(25.410461%, 63.586426%, 85.586548%)" offset="0.691406"/><stop stop-opacity="1" stop-color="rgb(24.978638%, 64.019775%, 86.019897%)" offset="0.695313"/><stop stop-opacity="1" stop-color="rgb(24.588013%, 64.208984%, 86.209106%)" offset="0.699219"/><stop stop-opacity="1" stop-color="rgb(24.198914%, 64.399719%, 86.399841%)" offset="0.703125"/><stop stop-opacity="1" stop-color="rgb(23.808289%, 64.788818%, 86.749268%)" offset="0.707031"/><stop stop-opacity="1" stop-color="rgb(23.419189%, 65.179443%, 87.098694%)" offset="0.710938"/><stop stop-opacity="1" stop-color="rgb(23.036194%, 65.568542%, 87.319946%)" offset="0.714844"/><stop stop-opacity="1" stop-color="rgb(22.654724%, 65.957642%, 87.542725%)" offset="0.71875"/><stop stop-opacity="1" stop-color="rgb(22.50061%, 66.352844%, 87.870789%)" offset="0.722656"/><stop stop-opacity="1" stop-color="rgb(22.348022%, 66.749573%, 88.198853%)" offset="0.726562"/><stop stop-opacity="1" stop-color="rgb(21.914673%, 67.167664%, 88.456726%)" offset="0.730469"/><stop stop-opacity="1" stop-color="rgb(21.481323%, 67.58728%, 88.716125%)" offset="0.734375"/><stop stop-opacity="1" stop-color="rgb(21.092224%, 67.941284%, 89.057922%)" offset="0.738281"/><stop stop-opacity="1" stop-color="rgb(20.703125%, 68.295288%, 89.399719%)" offset="0.742188"/><stop stop-opacity="1" stop-color="rgb(20.3125%, 68.684387%, 89.63623%)" offset="0.746094"/><stop stop-opacity="1" stop-color="rgb(19.923401%, 69.075012%, 89.874268%)" offset="0.75"/><stop stop-opacity="1" stop-color="rgb(19.532776%, 69.464111%, 90.063477%)" offset="0.753906"/><stop stop-opacity="1" stop-color="rgb(19.143677%, 69.854736%, 90.254211%)" offset="0.757812"/><stop stop-opacity="1" stop-color="rgb(18.754578%, 70.243835%, 90.643311%)" offset="0.761719"/><stop stop-opacity="1" stop-color="rgb(18.365479%, 70.632935%, 91.033936%)" offset="0.765625"/><stop stop-opacity="1" stop-color="rgb(17.939758%, 71.01593%, 91.273499%)" offset="0.769531"/><stop stop-opacity="1" stop-color="rgb(17.514038%, 71.398926%, 91.513062%)" offset="0.773438"/><stop stop-opacity="1" stop-color="rgb(17.160034%, 71.644592%, 91.856384%)" offset="0.777344"/><stop stop-opacity="1" stop-color="rgb(16.80603%, 71.891785%, 92.199707%)" offset="0.78125"/><stop stop-opacity="1" stop-color="rgb(16.416931%, 72.23053%, 92.384338%)" offset="0.785156"/><stop stop-opacity="1" stop-color="rgb(16.027832%, 72.570801%, 92.570496%)" offset="0.789062"/><stop stop-opacity="1" stop-color="rgb(15.637207%, 72.9599%, 92.935181%)" offset="0.792969"/><stop stop-opacity="1" stop-color="rgb(15.248108%, 73.350525%, 93.299866%)" offset="0.796875"/><stop stop-opacity="1" stop-color="rgb(14.872742%, 73.724365%, 93.499756%)" offset="0.800781"/><stop stop-opacity="1" stop-color="rgb(14.498901%, 74.099731%, 93.699646%)" offset="0.804687"/><stop stop-opacity="1" stop-color="rgb(14.498901%, 74.099731%, 93.699646%)" offset="0.8125"/><stop stop-opacity="1" stop-color="rgb(14.498901%, 74.099731%, 93.699646%)" offset="0.875"/><stop stop-opacity="1" stop-color="rgb(14.498901%, 74.099731%, 93.699646%)" offset="1"/></linearGradient></defs><g clip-path="url(#43e24aefa7)"><g clip-path="url(#86052d0643)"><g clip-path="url(#677918cf04)"><path fill="url(#8ac98e44f7)" d="M -100.9375 63.203125 L 84.246094 360.042969 L 400.9375 161.824219 L 215.753906 -135.015625 Z M -100.9375 63.203125 " fill-rule="nonzero"/></g></g></g></svg>